# xmcd
#
# Track frame offsets: 
#        150
#        9624
#        19542
#        72252
#        85376
#        92668
#        98676
#        102428
#        111592
#        118386
#        128233
#        143406
#        167238
#        168609
#        189625
#        209841
#        211604
#        220276
#        221407
#        242154
#        276996
#        279945
#        281427
#        318625
#        320019
#        322638
#
# Disc length: 4747 seconds
#
# Revision: 0
# Processed by: cddbd v1.5.2PL0 Copyright (c) Steve Scherf et al.
# Submitted via: ExactAudioCopy v0.95b3
#
DISCID=8d12891a
DTITLE=Led Zeppelin  - Studio Sessions Ultimate [Disc 5] 
DYEAR=1900
DGENRE=
TTITLE0=Friends
TTITLE1=Friends
TTITLE2=Friends
TTITLE3=Friends
TTITLE4=Friends
TTITLE5=Friends
TTITLE6=Friends
TTITLE7=Friends
TTITLE8=Friends
TTITLE9=Friends
TTITLE10=Friends
TTITLE11=Four Sticks
TTITLE12=Friends
TTITLE13=Friends
TTITLE14=Friends (take 1)
TTITLE15=Four Sticks (take 1)
TTITLE16=Four Sticks (take 2)
TTITLE17=Four Sticks (take 3)
TTITLE18=Walter's Walk
TTITLE19=No Quarter (Take 1)
TTITLE20=No Quarter
TTITLE21=No Quarter
TTITLE22=No Quarter (Take 4)
TTITLE23=No Quarter
TTITLE24=No Quarter
TTITLE25=No Quarter
EXTD=
EXTT0=
EXTT1=
EXTT2=
EXTT3=
EXTT4=
EXTT5=
EXTT6=
EXTT7=
EXTT8=
EXTT9=
EXTT10=
EXTT11=
EXTT12=
EXTT13=
EXTT14=
EXTT15=
EXTT16=
EXTT17=
EXTT18=
EXTT19=
EXTT20=
EXTT21=
EXTT22=
EXTT23=
EXTT24=
EXTT25=
PLAYORDER=
